<!--?xml version="1.0" encoding="utf-8"?-->
<!-- Generator: Adobe Illustrator 18.1.1, SVG Export Plug-In . SVG Version: 6.00 Build 0)  -->

<svg version="1.1" id="_x31_0" xmlns="http://www.w3.org/2000/svg" xmlns:xlink="http://www.w3.org/1999/xlink" x="0px" y="0px" viewBox="0 0 512 512" style="width: 256px; height: 256px; opacity: 1;" xml:space="preserve">
<style type="text/css">
	.st0{fill:#374149;}
</style>
<g>
	<path class="st0" d="M164.102,177.434c16.868,0,30.546-13.678,30.546-30.55c0-16.873-13.678-30.55-30.546-30.55
		c-16.873,0-30.55,13.677-30.55,30.55C133.552,163.756,147.229,177.434,164.102,177.434z" style="fill: rgb(75, 75, 75);"></path>
	<path class="st0" d="M210.191,191.899h-92.18c-2.358,0-4.288,1.93-4.288,4.289v125.409c0,2.358,1.93,4.288,4.288,4.288h22.508
		v80.393h23.582h23.578v-80.393h22.512c2.359,0,4.289-1.93,4.289-4.288V196.188C214.48,193.829,212.55,191.899,210.191,191.899z" style="fill: rgb(75, 75, 75);"></path>
	<path class="st0" d="M328.199,31.989v-0.16H0v446.816v1.362l0,0v0.164h328.199V33.356l0.003-1.367H328.199z M49.519,430.649V81.352
		H278.68v349.297H50.058H49.519z" style="fill: rgb(75, 75, 75);"></path>
	<polygon class="st0" points="512,347.874 511.894,347.979 511.89,347.76 509.086,350.428 489.644,368.394 475.272,381.665 
		465.699,390.354 465.855,390.354 465.625,390.566 465.625,390.421 465.699,390.354 465.625,390.354 465.614,360.195 
		465.614,307.236 435.368,307.236 433.247,307.259 433.247,356.856 433.138,390.323 433.247,390.323 433.247,390.562 
		433.138,390.46 433.138,390.323 432.99,390.323 418.18,376.666 390.509,351.123 388.427,349.213 387.087,347.834 387.087,347.982 
		386.927,347.834 386.946,367.487 386.946,390.398 449.429,448.075 511.914,390.398 511.914,352.685 511.902,349.822 	" style="fill: rgb(75, 75, 75);"></polygon>
	<polygon class="st0" points="386.95,164.03 386.95,164.248 389.786,161.55 409.384,143.435 423.632,130.281 433.216,121.579 
		433.228,151.485 433.228,204.441 433.228,204.601 433.228,204.601 433.228,204.765 465.594,204.765 465.594,155.062 
		465.703,121.54 480.935,135.589 508.333,160.878 511.894,164.134 511.894,163.9 511.914,163.916 511.894,144.38 511.894,121.602 
		449.409,63.925 386.927,121.602 386.927,159.315 386.943,162.166 386.842,164.131 	" style="fill: rgb(75, 75, 75);"></polygon>
	<rect x="418.242" y="241.235" class="st0" width="62.353" height="29.534" style="fill: rgb(75, 75, 75);"></rect>
</g>
</svg>
